<svg width="128" height="128" viewBox="0 0 128 128" fill="none" xmlns="http://www.w3.org/2000/svg">
  <path d="M85.5 7L64 28.5301L47.875 44.6776V7H21V71.5902V114.65L64 71.5902L107 28.5301V7H85.5Z" fill="currentColor" />
  <path d="M72.9687 112.156H52.5523C52.3065 112.16 52.0626 112.113 51.8349 112.019C51.6071 111.925 51.4003 111.785 51.2264 111.609C51.0526 111.432 50.9154 111.222 50.8228 110.99C50.7303 110.759 50.6842 110.511 50.6875 110.261V89.5156C50.6875 83.511 53.035 77.7522 57.2135 73.5063C61.3921 69.2603 67.0594 66.875 72.9687 66.875V66.875C75.8948 66.875 78.7921 67.4606 81.4954 68.5984C84.1987 69.7362 86.655 71.4039 88.724 73.5063C90.793 75.6087 92.4342 78.1045 93.5539 80.8514C94.6737 83.5983 95.25 86.5424 95.25 89.5156V89.5156C95.25 92.4888 94.6737 95.4329 93.5539 98.1798C92.4342 100.927 90.793 103.423 88.724 105.525C86.655 107.627 84.1987 109.295 81.4954 110.433C78.7921 111.571 75.8948 112.156 72.9687 112.156V112.156Z" stroke="currentColor" stroke-width="6" stroke-linecap="round" stroke-linejoin="round" />
  <path d="M72.9688 93.4531C74.5738 93.4531 75.875 92.131 75.875 90.5C75.875 88.869 74.5738 87.5469 72.9688 87.5469C71.3637 87.5469 70.0625 88.869 70.0625 90.5C70.0625 92.131 71.3637 93.4531 72.9688 93.4531Z" fill="currentColor" />
  <path d="M61.3438 93.4531C62.9488 93.4531 64.25 92.131 64.25 90.5C64.25 88.869 62.9488 87.5469 61.3438 87.5469C59.7387 87.5469 58.4375 88.869 58.4375 90.5C58.4375 92.131 59.7387 93.4531 61.3438 93.4531Z" fill="currentColor" />
  <path d="M84.5938 93.4531C86.1988 93.4531 87.5 92.131 87.5 90.5C87.5 88.869 86.1988 87.5469 84.5938 87.5469C82.9887 87.5469 81.6875 88.869 81.6875 90.5C81.6875 92.131 82.9887 93.4531 84.5938 93.4531Z" fill="currentColor" />
</svg>
