<svg width="296" height="128" viewBox="0 0 296 128" fill="none" xmlns="http://www.w3.org/2000/svg">
  <path d="M85.5 7L64 28.5301L47.875 44.6776V7H21V71.5902V114.65L64 71.5902L107 28.5301V7H85.5Z" fill="currentColor" />
  <path d="M72.9688 112.156H52.5524C52.3066 112.16 52.0626 112.113 51.8349 112.019C51.6071 111.925 51.4003 111.785 51.2265 111.609C51.0526 111.432 50.9154 111.222 50.8228 110.99C50.7303 110.759 50.6843 110.511 50.6875 110.261V89.5156C50.6875 83.511 53.035 77.7522 57.2135 73.5063C61.3921 69.2603 67.0594 66.875 72.9688 66.875V66.875C75.8948 66.875 78.7921 67.4606 81.4954 68.5984C84.1987 69.7362 86.655 71.4039 88.724 73.5063C90.793 75.6087 92.4342 78.1045 93.5539 80.8514C94.6737 83.5983 95.25 86.5424 95.25 89.5156V89.5156C95.25 92.4888 94.6737 95.4329 93.5539 98.1798C92.4342 100.927 90.793 103.423 88.724 105.525C86.655 107.627 84.1987 109.295 81.4954 110.433C78.7921 111.571 75.8948 112.156 72.9688 112.156V112.156Z" stroke="currentColor" stroke-width="6" stroke-linecap="round" stroke-linejoin="round" />
  <path d="M72.9688 93.4531C74.5738 93.4531 75.875 92.131 75.875 90.5C75.875 88.869 74.5738 87.5469 72.9688 87.5469C71.3637 87.5469 70.0625 88.869 70.0625 90.5C70.0625 92.131 71.3637 93.4531 72.9688 93.4531Z" fill="currentColor" />
  <path d="M61.3438 93.4531C62.9488 93.4531 64.25 92.131 64.25 90.5C64.25 88.869 62.9488 87.5469 61.3438 87.5469C59.7387 87.5469 58.4375 88.869 58.4375 90.5C58.4375 92.131 59.7387 93.4531 61.3438 93.4531Z" fill="currentColor" />
  <path d="M84.5938 93.4531C86.1988 93.4531 87.5 92.131 87.5 90.5C87.5 88.869 86.1988 87.5469 84.5938 87.5469C82.9887 87.5469 81.6875 88.869 81.6875 90.5C81.6875 92.131 82.9887 93.4531 84.5938 93.4531Z" fill="currentColor" />
  <path d="M157.805 59.7734V65.2578H139.992V59.7734H157.805ZM142.078 45.875V80H135.047V45.875H142.078ZM162.82 45.875V80H155.812V45.875H162.82ZM175.641 54.6406V80H168.867V54.6406H175.641ZM168.445 48.0312C168.445 47.0469 168.789 46.2344 169.477 45.5938C170.164 44.9531 171.086 44.6328 172.242 44.6328C173.383 44.6328 174.297 44.9531 174.984 45.5938C175.688 46.2344 176.039 47.0469 176.039 48.0312C176.039 49.0156 175.688 49.8281 174.984 50.4688C174.297 51.1094 173.383 51.4297 172.242 51.4297C171.086 51.4297 170.164 51.1094 169.477 50.4688C168.789 49.8281 168.445 49.0156 168.445 48.0312ZM204.398 59.7734V65.2578H186.586V59.7734H204.398ZM188.672 45.875V80H181.641V45.875H188.672ZM209.414 45.875V80H202.406V45.875H209.414ZM226.781 80.4688C224.812 80.4688 223.047 80.1562 221.484 79.5312C219.922 78.8906 218.594 78.0078 217.5 76.8828C216.422 75.7578 215.594 74.4531 215.016 72.9688C214.438 71.4688 214.148 69.875 214.148 68.1875V67.25C214.148 65.3281 214.422 63.5703 214.969 61.9766C215.516 60.3828 216.297 59 217.312 57.8281C218.344 56.6562 219.594 55.7578 221.062 55.1328C222.531 54.4922 224.188 54.1719 226.031 54.1719C227.828 54.1719 229.422 54.4688 230.812 55.0625C232.203 55.6562 233.367 56.5 234.305 57.5938C235.258 58.6875 235.977 60 236.461 61.5312C236.945 63.0469 237.188 64.7344 237.188 66.5938V69.4062H217.031V64.9062H230.555V64.3906C230.555 63.4531 230.383 62.6172 230.039 61.8828C229.711 61.1328 229.211 60.5391 228.539 60.1016C227.867 59.6641 227.008 59.4453 225.961 59.4453C225.07 59.4453 224.305 59.6406 223.664 60.0312C223.023 60.4219 222.5 60.9688 222.094 61.6719C221.703 62.375 221.406 63.2031 221.203 64.1562C221.016 65.0938 220.922 66.125 220.922 67.25V68.1875C220.922 69.2031 221.062 70.1406 221.344 71C221.641 71.8594 222.055 72.6016 222.586 73.2266C223.133 73.8516 223.789 74.3359 224.555 74.6797C225.336 75.0234 226.219 75.1953 227.203 75.1953C228.422 75.1953 229.555 74.9609 230.602 74.4922C231.664 74.0078 232.578 73.2812 233.344 72.3125L236.625 75.875C236.094 76.6406 235.367 77.375 234.445 78.0781C233.539 78.7812 232.445 79.3594 231.164 79.8125C229.883 80.25 228.422 80.4688 226.781 80.4688ZM248.156 44V80H241.383V44H248.156ZM260.484 59.5156V89.75H253.734V54.6406H259.992L260.484 59.5156ZM276.539 67.0391V67.5312C276.539 69.375 276.32 71.0859 275.883 72.6641C275.461 74.2422 274.836 75.6172 274.008 76.7891C273.18 77.9453 272.148 78.8516 270.914 79.5078C269.695 80.1484 268.289 80.4688 266.695 80.4688C265.148 80.4688 263.805 80.1562 262.664 79.5312C261.523 78.9062 260.562 78.0312 259.781 76.9062C259.016 75.7656 258.398 74.4453 257.93 72.9453C257.461 71.4453 257.102 69.8359 256.852 68.1172V66.8281C257.102 64.9844 257.461 63.2969 257.93 61.7656C258.398 60.2188 259.016 58.8828 259.781 57.7578C260.562 56.6172 261.516 55.7344 262.641 55.1094C263.781 54.4844 265.117 54.1719 266.648 54.1719C268.258 54.1719 269.672 54.4766 270.891 55.0859C272.125 55.6953 273.156 56.5703 273.984 57.7109C274.828 58.8516 275.461 60.2109 275.883 61.7891C276.32 63.3672 276.539 65.1172 276.539 67.0391ZM269.766 67.5312V67.0391C269.766 65.9609 269.672 64.9688 269.484 64.0625C269.312 63.1406 269.031 62.3359 268.641 61.6484C268.266 60.9609 267.766 60.4297 267.141 60.0547C266.531 59.6641 265.789 59.4688 264.914 59.4688C263.992 59.4688 263.203 59.6172 262.547 59.9141C261.906 60.2109 261.383 60.6406 260.977 61.2031C260.57 61.7656 260.266 62.4375 260.062 63.2188C259.859 64 259.734 64.8828 259.688 65.8672V69.125C259.766 70.2812 259.984 71.3203 260.344 72.2422C260.703 73.1484 261.258 73.8672 262.008 74.3984C262.758 74.9297 263.742 75.1953 264.961 75.1953C265.852 75.1953 266.602 75 267.211 74.6094C267.82 74.2031 268.312 73.6484 268.688 72.9453C269.078 72.2422 269.352 71.4297 269.508 70.5078C269.68 69.5859 269.766 68.5938 269.766 67.5312Z" fill="currentColor" />
</svg>
